<?xml version="1.0" encoding="UTF-8"?>
<svg id="Layer_2" data-name="Layer 2" xmlns="http://www.w3.org/2000/svg" viewBox="0 0 162.69 162.69">
  <defs>
    <style>
      .cls-1 {
        fill: #193756;
      }

      .cls-2 {
        fill: #f5ece3;
      }

      .cls-3 {
        fill: #e5b045;
      }

      .cls-4 {
        fill: #82aab9;
      }
    </style>
  </defs>
  <g id="V3">
    <g>
      <g>
        <circle class="cls-1" cx="81.35" cy="81.35" r="81.35"/>
        <circle class="cls-3" cx="81.35" cy="81.35" r="73.33"/>
      </g>
      <g>
        <g>
          <path class="cls-4" d="M83.58,104.23l-.06-.65-.62-6.37c-.63,2.05-1.63,4.19-3.09,6.36-.15.22-.3.43-.45.65-.1.13-.19.27-.29.4-.1.14-.25.22-.41.25-.08.01-.16.01-.23,0-.1-.02-.2-.05-.29-.12-.17-.13-.26-.32-.26-.52,0-.14.04-.28.13-.41.06-.08.12-.16.18-.24,3.07-4.2,4.14-8.26,4.21-11.58l-.38-3.9c-.24-1.04-.57-1.92-.92-2.6-.17-.32-.04-.72.28-.89.09-.05.19-.07.29-.07l-.95-9.67c-7.73-2.98-17.44-.91-22.51,6.82,1.56-1.05,3.43-1.67,5.34-1.67,4.93,0,8.94,4.38,8.94,9.76,0,4.15-2.8,9.62-8.73,14.27-.3.24-.61.47-.93.7-.33.24-.66.47-1.01.71-6.06,4.11-14.81,7.33-26.49,7.99,6.55,3.36,12.94,1.09,13.01,1.07.15-.05.31-.05.46,0,3.28,1.22,6.8,1.01,10.45-.61,3.74-1.66,7.51-4.88,10.6-8.85.17-.22.34-.44.5-.66.16-.22.32-.44.48-.66,1.6-2.26,2.99-4.72,4.02-7.25.14-.34.53-.5.86-.36.34.14.5.53.36.86-.96,2.34-2.18,4.6-3.58,6.7-.15.22-.3.44-.45.66-.15.22-.31.44-.47.66-3.01,4.13-6.74,7.53-10.6,9.54,1.16.47,2.71.76,4.21.76,3.06,0,5.01-1.27,5.03-1.29.27-.18.62-.14.85.09,0,0,1.3,1.19,5.58,1.19,2.59,0,5.29-1.22,7.69-3.4l-.69-7.02-.06-.65Z"/>
          <polygon class="cls-4" points="103.23 35.01 111.14 35.01 89.75 27.68 91.38 28.71 103.23 35.01"/>
          <polygon class="cls-4" points="86.33 39.5 85.69 39.48 85.59 39.01 82.08 40.16 77.51 47.5 87.16 47.82 87.83 38.34 86.36 38.86 86.33 39.5"/>
          <polygon class="cls-4" points="87 28.01 70.85 44.66 77.92 41.16 87 28.01"/>
          <polygon class="cls-4" points="94.49 36.34 88 27.35 86.17 38.17 94.49 36.34"/>
          <path class="cls-4" d="M95.45,36.51c-.22.08-.2.44-.39.49-.28.08-.47-.23-.65-.25-.38-.05-.99.28-1.42.26l4.91,8.32,8.24-4.91-7.09-4.41c-.26-.04-3.32.4-3.61.5Z"/>
        </g>
        <g>
          <path class="cls-2" d="M78.45,66.77c-.2-1.29-1.66-2.11-2.86-1.69-.89.31-1.88-.11-2.36-.99-.62-1.14-2.3-1.7-3.5-1.01-.93.53-2.07.25-2.6-.65-.95-1.61-3.48-1.81-4.67-.36-.68.82-1.91.82-2.61.04-1.43-1.57-4.27-1.31-5.27.69-.42.83-1.46,1.09-2.21.56-1.82-1.26-4.84-.64-5.33,2.02-.15.82-.99,1.31-1.78,1.04-2.52-.84-5.14,1.37-4.74,3.99.13.82-.47,1.57-1.3,1.61-3.09.17-4.73,3.94-2.66,6.33.71-.19,1.46-.24,2.18-.14.36.05.61.39.56.75-.05.36-.39.61-.75.56-.66-.09-1.34-.02-1.97.2-3.32,1.19-3.86,5.69-.87,7.62.7-1,1.71-1.73,2.91-2.08.35-.1.72.1.82.45.1.35-.1.72-.45.82-1.83.53-2.97,2.2-2.97,4.02,0,2.88,2.74,4.88,5.43,4.14.19-2.05,1.21-3.91,2.85-5.16.29-.22.71-.17.93.12.22.29.17.71-.12.93-1.44,1.11-2.3,2.79-2.36,4.62-.12,3.93,3.63,4.25,5.25,3.18-.13-1.08.23-2.16,1.01-2.95.26-.26.68-.26.94,0,.26.26.26.68,0,.94-.56.57-.78,1.37-.59,2.14.48,1.94,3.21,1.83,3.67-.05.79-3.18-.22-5.82,1.41-11.69.08-.29.17-.57.29-.85,4.01-12.05,16.21-15.83,25.84-12.5l-.51-5.19c-.8-.08-1.48-.66-1.6-1.44ZM57.09,70.05c-.13.34-.52.51-.86.38-2.28-.88-4.75.74-4.85,3.18-.02.45-.47.75-.89.6-4.18-1.51-6.73,4.43-2.9,6.5.6.33.37,1.25-.31,1.25-.11,0-.21-.03-.31-.08-5.01-2.7-2.04-10.21,3.19-9.13.59-2.83,3.64-4.67,6.55-3.55.34.13.51.52.38.86Z"/>
          <path class="cls-2" d="M99.72,74.07c.3,0,.6,0,.9-.02-.82-1.77-1.57-3.6-2.12-5.53l1.22,5.55Z"/>
          <path class="cls-2" d="M100.19,76.2c.49,0,.97-.02,1.45-.03-.16-.33-.33-.67-.49-1-.39.01-.79.02-1.18.02l.22,1.01Z"/>
          <path class="cls-2" d="M115.44,65.02c-1.38.62-3.04,1.11-4.87,1.5-.15.9-.29,1.81-.41,2.73,1.22.26,2.19.56,2.89.89.94.45,1.42.99,1.42,1.6,0,1.12-1.62,1.99-4.82,2.6,0,0,0,0,0,.01-.03.41-.04.8-.05,1.18,1.23-.19,2.24-.4,2.97-.64.45-.15.92.18.88.62l-2.95,29.59-.06.64-.06.64-.63,6.28h0c-.22,1.3-4.98,2.34-10.83,2.34s-10.61-1.04-10.82-2.34h0v-.02s0-.02,0-.03l-.26-2.59-.21-2.06-.3-3.05-.06-.65-.06-.65-2.67-26.76-.13-1.35c-.01-.11.01-.21.05-.3.13-.27.48-.43.82-.32.57.18,1.3.35,2.16.51.52.09,1.09.18,1.71.25,2.4.31,5.46.5,8.82.53l-.22-1.02c-3.45-.06-6.65-.36-9.13-.84-.12-.02-.24-.05-.35-.07-.77-.16-1.44-.34-2.01-.53-.34-.11-.66-.23-.92-.36-.37-.17-1.49-.69-1.49-1.63,0-.18.04-.35.12-.52.16-.33.48-.64.96-.91.56-.32,1.34-.6,2.35-.86,1.97-.51,4.64-.87,7.73-1.04.31-.02.57.22.59.53.02.31-.22.57-.53.59-2.97.17-5.64.53-7.51,1.01-.84.22-1.4.42-1.79.61-.73.35-.8.59-.8.6,0,0,.16.54,2.29,1.12.44.12.96.24,1.58.37,2.36.46,5.39.75,8.67.82l-1.39-6.48c-.33-.01-.66-.03-.99-.05-2.7-.15-5.49-.48-8.25-1.1-1.38-.32-2.75-.7-4.05-1.24-.65-.27-1.28-.58-1.84-.95-.09-.06-.17-.12-.26-.18l.29,2.92.14,1.44.53,5.41.15,1.52,1.08,11.07.72,7.34.96,9.84.06.65.06.65.59,6.05.17,1.75.17,1.74s0,0,0,.01h0s0,.02,0,.02c.06.34.92,1.08,3.8,1.72,2.55.56,5.92.87,9.48.87.84,0,1.67-.02,2.48-.05,2.62-.11,5.05-.39,7-.82,1.05-.23,1.83-.48,2.4-.71,1-.41,1.36-.79,1.4-1.01,0,0,0-.02,0-.03l.76-7.72.06-.64.06-.64,4.05-41.36c-.49.35-1.07.66-1.7.95Z"/>
          <path class="cls-2" d="M113.34,71.75s-.2-.7-3.32-1.38c-.11.93-.2,1.86-.28,2.81.78-.16,1.46-.34,2.03-.53,1.48-.5,1.57-.9,1.57-.9Z"/>
          <path class="cls-2" d="M97.61,62.29c0-.24,0-.47,0-.71.05-1.31.21-2.55.46-3.75-.64,0-1.28.02-1.92.05l.97,4.39c.16,0,.32.01.48.02Z"/>
          <path class="cls-2" d="M111.88,60.33s-.02.08-.03.12c.05-.02.1-.04.15-.06-.04-.02-.08-.04-.12-.06Z"/>
          <path class="cls-2" d="M86.12,60c-.05.03-.1.05-.15.08,1,.46,2.06.81,3.13,1.08,1.91.49,3.87.8,5.84.98l-.57-2.64-.34-1.45c-.97.1-1.94.24-2.91.43-1.68.32-3.45.74-5,1.52Z"/>
          <path class="cls-2" d="M112.97,59.57c.09.05.18.1.26.16.03-.02.06-.04.09-.06.18-.13.28-.3.32-.48.04-.17.01-.37-.07-.57-.14-.36-.49-.65-.87-.88-.19.49-.36.96-.51,1.43.25.11.49.23.72.37.02,0,.03.02.05.03Z"/>
          <path class="cls-2" d="M98.28,56.97c.15-.56.32-1.12.52-1.66-1.06-.01-2.12,0-3.18.04l.36,1.67c.77-.03,1.54-.05,2.3-.05Z"/>
          <path class="cls-2" d="M112.77,61.74l-.43-.28c-.11-.07-.31-.09-.43-.04-.11.05-.22.09-.33.13-.1.42-.2.85-.29,1.27.56-.2,1.07-.42,1.47-.67.15-.09.15-.31,0-.41Z"/>
          <path class="cls-2" d="M84.74,59.42c.25-.19.55-.34.8-.45,2.18-1.01,4.64-1.43,7.02-1.69.42-.05.84-.09,1.27-.12l-.39-1.67-4.17.62c-1.15.24-2.29.56-3.37,1.02-.35.15-.85.38-1.21.71-.33.3-.55.67-.43,1.13.06.25.49.45.49.45Z"/>
          <rect class="cls-2" x="100.79" y="89" width="7.75" height="7.75" transform="translate(-17.51 161.09) rotate(-70.76)"/>
          <polygon class="cls-2" points="93.71 104.49 94.45 105.17 97.75 108.19 100.22 105.49 100.77 104.88 101.33 104.27 102.98 102.47 97.27 97.24 92.03 102.95 92.97 103.81 93.71 104.49"/>
          <polygon class="cls-2" points="95.25 84.92 92.87 86.1 91.41 86.82 88.3 88.36 91.74 95.31 91.87 95.24 93.26 94.55 98.69 91.87 95.25 84.92"/>
        </g>
        <g>
          <path class="cls-3" d="M126.32,45.25c-.1.04-.19.06-.24.08-.84.19-2.13.09-2.89-.11-.47-.12-.66-.31-.87-.5-.08-.07-.16-.15-.27-.24-1.54-1.21-3.65-1.5-5.82-1.28-2.73.28-5.55,1.37-7.46,2.47-3.09,1.78-5.79,4.63-7.54,7.78-.35.63-.66,1.26-.93,1.91-.23.55-.42,1.1-.59,1.65-.09.28-.16.57-.23.85-.11.46-.2.93-.26,1.39-.14,1.06-.2,2.09-.19,3.1.69,0,1.39,0,2.08-.02.97-.03,1.94-.08,2.9-.17.09-1.33.26-2.65.55-3.9.07-.3.15-.6.24-.89.09-.31.19-.61.3-.9.09-.24.19-.48.29-.72.27-.61.6-1.23.97-1.86,2.03-3.36,5.53-6.72,9.24-7.77,2.12-.6,5.74-.73,8.07-.28.88.17,1.73.5,2.55.82.06.02.11.04.17.07l.2-1.54c-.1.03-.21.07-.27.09Z"/>
          <path class="cls-3" d="M104.23,69.6c-.04-.36-.08-.74-.11-1.13-.03-.33-.06-.68-.08-1.03-.37.03-.74.06-1.11.08-1.03.06-2.09.09-3.17.11.06.23.12.46.19.69.11.38.22.75.35,1.13.5,1.49,1.12,3.01,1.86,4.58.16,0,.33-.01.49-.02.31-.01.57.22.59.53.01.31-.22.57-.53.59,0,0,0,0,0,0,.16.33.33.67.5,1,.82-.04,1.61-.08,2.36-.14-.55-1.67-.93-3.33-1.16-5.03-.05-.41-.11-.86-.16-1.35Z"/>
          <path class="cls-3" d="M118.37,47.01c-1.26.13-2.44.42-3.5.86-2.59,1.08-5.2,3.47-6.96,6.23-.38.6-.73,1.22-1.02,1.85-.11.24-.22.48-.31.72-.11.29-.22.58-.31.87-.1.31-.19.62-.27.94-.29,1.13-.46,2.31-.55,3.5.81-.1,1.62-.23,2.42-.39.78-.15,1.55-.34,2.31-.57.11-.44.24-.87.36-1.31.11-.36.22-.72.34-1.07.07-.22.14-.45.22-.67.1-.28.2-.56.31-.83.28-.71.58-1.38.89-2.02,1.48-2.99,3.39-5.23,5.8-6.81.52-.34,1.07-.63,1.61-.9.29-.15.58-.3.86-.46-.75-.03-1.49-.01-2.21.06Z"/>
          <path class="cls-3" d="M105.59,68.59c.02.2.04.4.06.6.02.18.04.36.06.54.18,1.56.41,2.93.69,4.1.09-.09.2-.15.33-.16.53-.06,1.04-.13,1.52-.21.08-.88.19-1.78.29-2.66.03-.23.05-.46.08-.69.01-.09.02-.18.03-.27.03-.28.07-.57.1-.85.09-.71.18-1.43.29-2.17-1.14.2-2.33.36-3.57.49.03.44.07.87.11,1.29Z"/>
          <path class="cls-3" d="M106.8,74.78c-.05,0-.1,0-.15-.02.12.4.25.76.38,1.1.38-.04.75-.08,1.1-.12,0-.38,0-.76.03-1.13,0,0,0,0,0,0-.41.06-.84.12-1.3.17-.02,0-.04,0-.07,0Z"/>
          <path class="cls-3" d="M107.78,63.05l.36.28c.18.14.42.2.64.15.27-.06.57-.12.87-.2.08-.39.16-.78.25-1.17-.87.26-1.58.42-2.03.51-.2.04-.26.3-.1.42Z"/>
        </g>
        <g>
          <path class="cls-1" d="M121.12,130.83c-3.34-2.6-4.85-5.59-4.74-8.57-4.82.73-10.22,1.29-16.01,1.68,4.6,4.97,15.03,7.52,19.26,8.13,2.94.2,3.56-.19,1.49-1.25Z"/>
          <path class="cls-1" d="M126.09,113.17l5.02-2.43c-2.48-1.02-6.18-2.06-11.41-2.99-1.79-.32-3.69-.62-5.68-.89l.06-.64.06-.64,4.19-42.82s.04-.09.06-.13c.01-.05.02-.09.04-.14v-.03s.02-.06.02-.06v-.12s.02-.1.02-.1v-.04c-.01-.08-.02-.15-.02-.22v-.04s0-.01,0-.01l-.02-.11c-.05-.28-.11-.54-.15-.78-.1-.49-.18-.9-.24-1.24-.13-.67-.2-1.03-.2-1.03h0s0-.27-.35-.74c-.33-.47-1.06-1.08-2.15-1.64-.48-.25-1.03-.49-1.64-.72,1.3-2.48,3.17-4.88,5.64-6.39,1.24-.76,3.35-1.93,3.93-2.02.44-.07,1.18.2,1.57.35.12.04.26.12.42.19.68.33,1.82.89,2.34-.11.09-.17.14-.38.18-.54.11-.46.31-1.82.3-2.33-.01-.38-.21-.72-.54-.93-.39-.24-.91-.28-1.33-.09h0c-.14.06-.25.12-.35.17-.34.17-.45.23-.99.2-1.12-.06-1.56-.4-2.12-.84-.37-.29-.78-.61-1.42-.86-4.11-1.62-8.8-.16-12,1.36-1.66.79-2.87,1.61-4.44,3.02-2.34,2.11-4.07,4.27-5.25,6.62-.44,0-.88-.01-1.34,0-1,.02-2.03.06-3.07.13l-1.39-6.51c.89.05,2.3-.68,3.08-.65.47.01.71.5,1.24.41.89-.15.71-.96,1.27-1.4.69-.54,5.46-3.25,6.27-3.56.77-.29,1.61.19,1.99-.67.15-.34.08-.69.28-1.05.13-.23,3.36-3.63,3.58-3.75.26-.15.49.03.76-.05.61-.2.76-.91.64-1.49l-23.92-8.47c-.07-1.06-.99-1.98-1.95-1.13-.74.65.05,1.21-.4,1.93l-17.58,18.05c-.31.97.15,1.53,1.16,1.34.29-.06.43-.34.8-.3.36.03,4.89,1.66,5.08,1.85.15.16.15.49.38.7.9.79,1.43-.37,1.9-.4.21-.01.53.16.84.16,1.87.02,4.36-.05,6.17.16.9.11,1.53.91,2.48.31.18-.11.19-.38.39-.47.29-.13,3.21-.75,3.35-.65l1.37,5.86c-.83.09-1.67.2-2.52.33-1.34.21-2.69.49-4.03.85-1.33.37-2.67.81-3.9,1.44-.61.31-1.2.68-1.68,1.12-.24.22-.45.46-.6.71-.04.06-.08.13-.1.18l-.04.08-.02.04s-.01.04-.02.06l-.04.13-.02.07h0s0,.02,0,.02c0,0,0,0,0,0l-.05.27c-.07.36-.14.71-.21,1.07-.07.36-.14.72-.21,1.07l-.11.54-.03.13v.05s-.01.03-.01.03l-.03.27h0s0,0,0,0v.05s.01.1.01.1c0,.07.02.13.04.19l.02.1.03.07.4,4.1c-.08-.06-.14-.13-.15-.23-.32-2.09-2.59-3.43-4.6-2.75-.31.11-.62-.1-.76-.37-.96-1.77-3.45-2.6-5.32-1.53-.29.17-.65.09-.8-.17-1.42-2.4-5.07-2.68-6.84-.53-.16.2-.44.17-.61-.01-2.04-2.24-6-1.87-7.43.98-.05.11-.18.14-.28.07-2.62-1.81-6.71-.75-7.4,2.9-.01,0-.02,0-.04,0-3.47-1.16-7.02,1.85-6.47,5.45,0,.04-.01.09-.06.09-4.05.22-6.21,4.94-3.87,8.17-3.71,2.09-3.82,7.4-.2,9.65-1.61,4.15,2.02,8.43,6.37,7.54.39,4.03,4.53,4.94,6.97,3.62,1.37,2.4,5.19,1.96,5.9-.91.35-1.42.4-2.8.4-4.07,0-3.03.42-5.83,1.25-8.33,1.17-2.86,4.34-5.01,7.57-5.01,4.2,0,7.62,3.79,7.62,8.44,0,3.92-3.04,9.7-9.84,14.42-.35.24-.72.49-1.09.73-.39.25-.79.49-1.2.73-6.28.49-12.06,1.18-17.04,2.08-11.51,2.06-15.61,4.62-15.61,6.33s4.1,4.28,15.61,6.33c10.37,1.86,24.17,2.88,38.86,2.88,6.42,0,12.68-.2,18.55-.57,6.23-.4,12.03-1,17.15-1.78,1.08-.17,2.14-.34,3.16-.52,6.79-1.21,11-2.6,13.31-3.89l-6.92-3.35ZM119.72,47.41c-.54.28-1.09.56-1.61.9-2.41,1.58-4.32,3.82-5.8,6.81-.32.64-.61,1.31-.89,2.02-.11.27-.21.55-.31.83-.08.22-.15.45-.22.67-.12.36-.23.71-.34,1.07-.13.43-.25.87-.36,1.31-.76.23-1.53.42-2.31.57-.8.16-1.61.29-2.42.39.09-1.19.26-2.37.55-3.5.08-.32.17-.63.27-.94.1-.3.2-.59.31-.87.1-.24.2-.48.31-.72.29-.63.64-1.25,1.02-1.85,1.76-2.76,4.37-5.15,6.96-6.23,1.07-.44,2.25-.73,3.5-.86.71-.07,1.45-.09,2.21-.06-.29.16-.58.31-.86.46ZM112.76,62.14c-.4.26-.92.48-1.47.67.09-.42.19-.85.29-1.27.11-.04.22-.08.33-.13,0,0,.01,0,.02,0,.09.02.18.03.28.03.03,0,.05,0,.07,0,.02,0,.04.01.05.02l.43.28c.15.1.14.31,0,.41ZM102.64,73.99c-.16,0-.33.01-.49.02-.74-1.57-1.37-3.08-1.86-4.58-.13-.38-.24-.75-.35-1.13-.07-.23-.13-.46-.19-.69,1.08-.01,2.14-.04,3.17-.11.37-.02.75-.05,1.11-.08.02.35.05.7.08,1.03.03.39.07.77.11,1.13.05.48.11.94.16,1.35.23,1.7.61,3.36,1.16,5.03-.76.06-1.54.1-2.36.14-.17-.34-.34-.67-.5-1,0,0,0,0,0,0,.31-.01.55-.28.53-.59-.01-.31-.28-.55-.59-.53ZM101.64,76.17c-.48.01-.96.02-1.45.03l-.22-1.01c.4,0,.79-.01,1.18-.02.16.34.33.67.49,1ZM100.62,74.05c-.3,0-.6.01-.9.02l-1.22-5.55c.55,1.93,1.3,3.76,2.12,5.53ZM98.69,91.87l-5.43,2.68-1.39.69-.13.06-3.44-6.95,3.1-1.53,1.46-.72,2.38-1.18,3.44,6.95ZM97.27,97.24l5.72,5.23-1.65,1.8-.56.61-.55.61-2.47,2.7-3.3-3.02-.74-.68-.74-.68-.94-.86,5.23-5.72ZM99.73,95.26l2.55-7.32,7.32,2.55-2.55,7.32-7.32-2.55ZM106.65,74.76s.1.02.15.02c.02,0,.04,0,.07,0,.45-.05.88-.11,1.3-.17,0,0,0,0,0,0-.02.37-.03.75-.03,1.13-.35.04-.72.08-1.1.12-.13-.34-.26-.7-.38-1.1ZM108.76,68.99c-.03.28-.07.57-.1.85-.01.09-.02.18-.03.27-.03.23-.05.46-.08.69-.1.88-.21,1.77-.29,2.66-.48.08-.99.15-1.52.21-.13.02-.25.08-.33.16-.28-1.16-.51-2.53-.69-4.1-.02-.18-.04-.35-.06-.54-.02-.2-.04-.4-.06-.6-.04-.42-.08-.85-.11-1.29,1.24-.13,2.43-.29,3.57-.49-.11.74-.2,1.47-.29,2.17ZM108.79,63.49c-.23.05-.46,0-.64-.15l-.36-.28c-.16-.13-.1-.38.1-.42.45-.09,1.16-.25,2.03-.51-.09.39-.17.78-.25,1.17-.3.07-.6.14-.87.2ZM110.02,70.37c3.12.68,3.32,1.37,3.32,1.38,0,0-.09.4-1.57.9-.56.19-1.25.37-2.03.53.08-.95.17-1.88.28-2.81ZM99.21,59.23c.06-.46.15-.92.26-1.39.07-.28.15-.57.23-.85.17-.55.36-1.1.59-1.65.27-.64.58-1.28.93-1.91,1.75-3.15,4.45-6.01,7.54-7.78,1.91-1.1,4.74-2.19,7.46-2.47,2.17-.22,4.28.07,5.82,1.28.11.09.2.17.27.24.2.2.4.38.87.5.47.12,1.14.21,1.78.21-.07.24-.08.5-.03.74-.42-.14-.84-.26-1.27-.35-2.33-.45-5.95-.32-8.07.28-3.71,1.05-7.21,4.41-9.24,7.77-.38.62-.7,1.25-.97,1.86-.11.24-.21.49-.29.72-.11.29-.21.59-.3.9-.09.29-.17.59-.24.89-.29,1.24-.46,2.57-.55,3.9-.97.09-1.93.14-2.9.17-.69.02-1.38.02-2.08.02-.01-1.01.04-2.04.19-3.1ZM98.8,55.31c-.2.54-.37,1.1-.52,1.66-.77,0-1.54.02-2.3.05l-.36-1.67c1.06-.04,2.12-.05,3.18-.04ZM98.08,57.83c-.25,1.19-.41,2.43-.46,3.75,0,.24,0,.48,0,.71-.16,0-.32,0-.48-.02l-.97-4.39c.64-.03,1.28-.05,1.92-.05ZM94.03,58.05l.34,1.45.57,2.64c-1.97-.18-3.93-.49-5.84-.98-1.07-.28-2.13-.62-3.13-1.08.05-.03.1-.05.15-.08,1.55-.78,3.32-1.19,5-1.52.97-.19,1.94-.33,2.91-.43ZM111.14,35.01h-7.91l-11.85-6.3-1.63-1.03,21.39,7.33ZM70.85,44.66l16.15-16.65-9.08,13.14-7.06,3.51ZM87.16,47.82l-9.65-.32,4.57-7.33,3.51-1.16.1.48.65.02.02-.64,1.48-.52-.67,9.48ZM86.17,38.17l1.83-10.82,6.49,8.99-8.32,1.83ZM93,37.01c.43.03,1.04-.31,1.42-.26.18.02.37.34.65.25.18-.06.17-.41.39-.49.29-.11,3.35-.54,3.61-.5l7.09,4.41-8.24,4.91-4.91-8.32ZM84.68,57.84c.36-.32.86-.56,1.21-.71,1.08-.46,2.22-.78,3.37-1.02l4.17-.62.39,1.67c-.42.04-.85.08-1.27.12-2.37.26-4.84.67-7.02,1.69-.25.12-.55.26-.8.45,0,0-.42-.2-.49-.45-.12-.46.1-.83.43-1.13ZM54.72,85.9c-.11.28-.21.56-.29.85-1.62,5.87-.62,8.51-1.41,11.69-.47,1.88-3.19,1.99-3.67.05-.19-.77.03-1.57.59-2.14.26-.26.25-.68,0-.94-.26-.26-.68-.25-.94,0-.78.79-1.14,1.87-1.01,2.95-1.62,1.07-5.38.75-5.25-3.18.06-1.83.92-3.52,2.36-4.62.29-.22.35-.64.12-.93-.22-.29-.64-.35-.93-.12-1.64,1.25-2.66,3.11-2.85,5.16-2.69.74-5.43-1.26-5.43-4.14,0-1.82,1.14-3.48,2.97-4.02.35-.1.55-.47.45-.82-.1-.35-.47-.55-.82-.45-1.19.35-2.2,1.08-2.91,2.08-2.98-1.93-2.44-6.43.87-7.62.63-.23,1.31-.3,1.97-.2.36.05.7-.2.75-.56.05-.36-.2-.7-.56-.75-.73-.1-1.47-.05-2.18.14-2.07-2.39-.43-6.16,2.66-6.33.83-.05,1.42-.79,1.3-1.61-.4-2.62,2.22-4.83,4.74-3.99.79.26,1.63-.22,1.78-1.04.49-2.66,3.51-3.28,5.33-2.02.76.53,1.8.26,2.21-.56,1-2,3.84-2.26,5.27-.69.71.78,1.94.79,2.61-.04,1.19-1.45,3.72-1.25,4.67.36.53.9,1.67,1.18,2.6.65,1.2-.69,2.88-.13,3.5,1.01.48.88,1.47,1.3,2.36.99,1.2-.41,2.66.4,2.86,1.69.12.78.79,1.36,1.6,1.44l.51,5.19c-9.63-3.33-21.83.45-25.84,12.5ZM76.64,115.3c-4.28,0-5.58-1.19-5.58-1.19-.22-.23-.58-.27-.85-.09-.02.01-1.97,1.29-5.03,1.29-1.5,0-3.04-.29-4.21-.76,3.85-2.01,7.58-5.41,10.6-9.54.16-.22.32-.44.47-.66.15-.22.3-.44.45-.66,1.4-2.1,2.62-4.36,3.58-6.7.14-.34-.02-.73-.36-.86-.34-.14-.73.02-.86.36-1.04,2.53-2.42,4.99-4.02,7.25-.16.22-.32.44-.48.66-.17.22-.33.44-.5.66-3.09,3.98-6.86,7.19-10.6,8.85-3.65,1.62-7.17,1.83-10.45.61-.15-.05-.31-.06-.46,0-.07.03-6.46,2.29-13.01-1.07,11.68-.65,20.43-3.88,26.49-7.99.34-.23.68-.47,1.01-.71.32-.23.63-.47.93-.7,5.92-4.65,8.73-10.12,8.73-14.27,0-5.38-4.01-9.76-8.94-9.76-1.92,0-3.78.62-5.34,1.67,5.06-7.74,14.78-9.8,22.51-6.82l.95,9.67c-.1,0-.2.02-.29.07-.32.17-.45.57-.28.89.35.68.68,1.56.92,2.6l.38,3.9c-.08,3.33-1.14,7.38-4.21,11.58-.06.08-.11.16-.18.24-.09.12-.13.26-.13.41,0,.2.09.39.26.52.09.07.19.1.29.12.08.01.16.01.23,0,.16-.03.3-.11.41-.25.1-.13.19-.27.29-.4.16-.22.31-.43.45-.65,1.47-2.16,2.47-4.31,3.09-6.36l.62,6.37.06.65.06.65.69,7.02c-2.4,2.18-5.09,3.4-7.69,3.4ZM113.03,106.07l-.06.64-.76,7.72s0,.02,0,.03c-.04.22-.4.59-1.4,1.01-.57.24-1.35.48-2.4.71-1.95.43-4.38.71-7,.82-.81.03-1.64.05-2.48.05-3.56,0-6.93-.31-9.48-.87-2.88-.64-3.74-1.38-3.8-1.72,0,0,0,0,0,0h0s0-.02,0-.02l-.17-1.74-.17-1.75-.59-6.05-.06-.65-.06-.65-.96-9.84-.72-7.34-1.08-11.07-.15-1.52-.53-5.41-.14-1.44-.29-2.92c.08.06.17.12.26.18.57.37,1.2.68,1.84.95,1.3.54,2.67.93,4.05,1.24,2.76.63,5.55.95,8.25,1.1.33.02.66.03.99.05l1.39,6.48c-3.28-.07-6.31-.35-8.67-.82-.62-.12-1.14-.25-1.58-.37-2.13-.59-2.29-1.12-2.29-1.12,0,0,.07-.25.8-.6.38-.18.95-.39,1.79-.61,1.87-.48,4.54-.84,7.51-1.01.31-.02.55-.28.53-.59-.02-.31-.28-.55-.59-.53-3.08.18-5.76.54-7.73,1.04-1.02.26-1.8.55-2.35.86-.49.28-.81.58-.96.91-.08.16-.12.34-.12.52,0,.95,1.12,1.46,1.49,1.63.27.12.58.24.92.36.57.19,1.24.37,2.01.53.12.02.23.05.35.07,2.49.49,5.69.78,9.13.84l.22,1.02c-3.36-.03-6.42-.23-8.82-.53-.61-.08-1.19-.16-1.71-.25-.86-.15-1.59-.32-2.16-.51-.34-.11-.69.05-.82.32-.04.09-.07.19-.05.3l.13,1.35,2.67,26.76.06.65.06.65.3,3.05.21,2.06.26,2.59s0,.02,0,.03v.02h0c.22,1.3,4.98,2.34,10.82,2.34s10.61-1.04,10.83-2.34h0l.63-6.28.06-.64.06-.64,2.95-29.59c.04-.44-.43-.77-.88-.62-.73.24-1.75.46-2.97.64,0-.38.02-.77.05-1.18,0,0,0,0,0-.01,3.2-.61,4.82-1.48,4.82-2.6,0-.61-.48-1.15-1.42-1.6-.7-.33-1.67-.63-2.89-.89.12-.92.26-1.83.41-2.73,1.83-.39,3.49-.88,4.87-1.5.64-.29,1.22-.61,1.7-.95l-4.05,41.36-.06.64Z"/>
          <path class="cls-1" d="M56.71,69.19c-2.91-1.13-5.96.72-6.55,3.55-5.24-1.08-8.2,6.43-3.19,9.13.1.05.21.08.31.08.68,0,.92-.92.31-1.25-3.83-2.06-1.28-8,2.9-6.5.42.15.87-.15.89-.6.1-2.44,2.57-4.07,4.85-3.18.34.13.72-.04.86-.38.13-.34-.04-.72-.38-.86Z"/>
        </g>
      </g>
    </g>
  </g>
</svg>